<svg id="Layer_1" data-name="Layer 1" xmlns="http://www.w3.org/2000/svg" viewBox="0 0 658.81 186.73"><defs><style>.cls-1{fill:#f3725f;}.cls-2{fill:#fff;}</style></defs><title>oxyhub-logo</title><path class="cls-1" d="M126.8,167.29a6.74,6.74,0,0,1-6.23-3.63q-2.07-3.63,1.87-8.41l33-41.34L124.73,75.69q-4-4.77-1.87-8.41a6.73,6.73,0,0,1,6.23-3.63,11.21,11.21,0,0,1,5.4,1.14,12.86,12.86,0,0,1,3.95,3.63l26.79,33.86,27-33.86a12.75,12.75,0,0,1,4-3.63,10.66,10.66,0,0,1,5.19-1.14,6.67,6.67,0,0,1,6.33,3.63q2,3.64-2,8.62l-30.74,38,33.23,41.34q3.75,4.77,1.67,8.41a6.93,6.93,0,0,1-6.44,3.63,11.43,11.43,0,0,1-9.35-4.77L165,126l-28.87,36.56a15.66,15.66,0,0,1-4,3.53A10.38,10.38,0,0,1,126.8,167.29Z" transform="translate(-11.55 -18.16)"/><path class="cls-1" d="M255.79,204.89c-3.19,0-5.33-1.22-6.44-3.64a10,10,0,0,1,.21-8.2l12.67-28.67L224,75.49q-2.08-4.78-.1-8.31t7.58-3.53q5.81,0,8.51,6.64l31.37,76.65,31.57-76.65a13.34,13.34,0,0,1,3.53-5.19,8.62,8.62,0,0,1,5.4-1.45q4.77,0,6.44,3.53c1.1,2.35,1,5-.21,8.1l-53.17,123a12.8,12.8,0,0,1-3.64,5.19A9.1,9.1,0,0,1,255.79,204.89Z" transform="translate(-11.55 -18.16)"/><path class="cls-1" d="M348.42,167.5q-8.31,0-8.31-8.72V26.68q0-8.52,8.31-8.52,8.52,0,8.52,8.52v55a32.88,32.88,0,0,1,14-13.81,43.35,43.35,0,0,1,20.25-4.68q35.93,0,35.93,39.88v55.67q0,8.72-8.3,8.72-8.52,0-8.52-8.72V104.15q0-14.12-5.51-20.67t-17.55-6.54q-13.9,0-22.12,8.62t-8.2,23v50.27Q356.94,167.5,348.42,167.5Z" transform="translate(-11.55 -18.16)"/><path class="cls-1" d="M493.81,167.92q-36.35,0-36.34-40.09V72.16q0-8.51,8.3-8.51,8.52,0,8.52,8.51v55.46q0,13.5,5.5,19.94T497.14,154q12.87,0,21-8.62t8.1-22.95V72.16q0-8.51,8.51-8.51,8.31,0,8.31,8.51v86.62q0,8.72-8.1,8.72-8.31,0-8.31-8.72V149a33.53,33.53,0,0,1-13.4,14A38.64,38.64,0,0,1,493.81,167.92Z" transform="translate(-11.55 -18.16)"/><path class="cls-1" d="M625.7,167.92a41.05,41.05,0,0,1-21-5.3A32.39,32.39,0,0,1,591.23,148v10.8c0,5.81-2.78,8.72-8.31,8.72s-8.31-2.91-8.31-8.72V26.68q0-8.52,8.31-8.52,8.51,0,8.51,8.52V82.55a32.47,32.47,0,0,1,13.5-14.13,41.45,41.45,0,0,1,20.77-5.19q13.5,0,23.58,6.34a41.63,41.63,0,0,1,15.58,18.07q5.49,11.73,5.5,27.93,0,16-5.5,27.73a42.28,42.28,0,0,1-15.58,18.18Q639.2,167.92,625.7,167.92Zm-3.53-13.51q14.13,0,22.64-10.07t8.52-28.77q0-18.88-8.52-28.87t-22.64-10q-14.13,0-22.64,10T591,115.57q0,18.7,8.51,28.77T622.17,154.41Z" transform="translate(-11.55 -18.16)"/><path class="cls-1" d="M61.18,168.12q-14.74,0-25.55-6.44a43.39,43.39,0,0,1-16.72-18.17Q13,131.78,13,115.78t5.92-27.73A43.39,43.39,0,0,1,35.63,69.88q10.8-6.43,25.55-6.44,14.54,0,25.45,6.44a43.17,43.17,0,0,1,16.82,18.17q5.92,11.74,5.92,27.73t-5.92,27.73a43.17,43.17,0,0,1-16.82,18.17Q75.72,168.13,61.18,168.12Zm0-13.5q14.13,0,22.64-10.07t8.52-28.77q0-18.9-8.52-28.87t-22.64-10q-14.32,0-22.74,10T30,115.78q0,18.69,8.41,28.77T61.18,154.62ZM100,114.46c0,23.69-16.57,42.9-37,42.9s-37-19.21-37-42.9S42.58,71.57,63,71.57,100,90.77,100,114.46Z" transform="translate(-11.55 -18.16)"/><path class="cls-2" d="M42.61,109.66c-2.68,4-4.69,7.53-7.26,10.6A8.47,8.47,0,0,1,30.09,123c-4.53.39-9.11.08-13.67.14-2.9,0-4.81-1.31-4.86-4.13-.06-3,1.88-4.53,4.94-4.44h.38c16.24.69,12.67.25,18.57-9.41,1.14-1.87,2.33-4.42,3.65-6.15,3-4,6.56-3.74,8.62.86,4.4,9.8,8.7,19.64,13.05,29.46.3.67.7,1.29,1.36,2.5.64-1.9,1.14-3.29,1.59-4.7,4.23-13.23,8.48-26.45,12.64-39.7.77-2.47,1.75-4.66,4.66-4.69S85,85,85.8,87.37c2.86,8.1,5.84,16.15,8.63,24.27.73,2.11,1.74,3.08,4.08,2.9a78.66,78.66,0,0,1,8,0c2.77,0,4.35,1.73,4.32,4.28a4.08,4.08,0,0,1-4.35,4.31c-4.55,0-9.12,0-13.67,0-2.79,0-4-1.69-4.8-4-2-5.7-4.19-11.36-6.67-18.08-.73,2-1.18,3.22-1.56,4.42q-6.06,19.14-12.09,38.29c-.74,2.38-1.46,4.82-4.37,5-3.12.25-4.21-2.15-5.28-4.56C53,132.91,48,121.63,42.61,109.66Z" transform="translate(-11.55 -18.16)"/></svg>